<svg width="412" height="76" viewBox="0 0 412 76" fill="none" xmlns="http://www.w3.org/2000/svg">
<g filter="url(#filter0_d_2_9)">
<path d="M59.7853 40.5312H21.254V28.25H59.7853V40.5312ZM65.2228 12.9688H16.379V68H4.19153V6.92188C4.19153 6.07812 4.34778 5.28125 4.66028 4.53125C4.97278 3.78125 5.39465 3.125 5.9259 2.5625C6.4884 2 7.14465 1.5625 7.89465 1.25C8.64465 0.9375 9.45715 0.78125 10.3322 0.78125H65.2228V12.9688ZM87.3478 68H75.1603V0.78125H87.3478V68ZM162.348 12.9688H135.488V68H123.301V12.9688H96.3947V0.78125H162.348V12.9688Z" fill="#00FFB3"/>
<path d="M226.942 40.5312H188.41V28.25H226.942V40.5312ZM232.379 12.9688H183.535V68H171.348V6.92188C171.348 6.07812 171.504 5.28125 171.817 4.53125C172.129 3.78125 172.551 3.125 173.082 2.5625C173.645 2 174.301 1.5625 175.051 1.25C175.801 0.9375 176.613 0.78125 177.488 0.78125H232.379V12.9688ZM303.957 68H248.363C247.488 68 246.676 67.8438 245.926 67.5312C245.176 67.2188 244.52 66.7969 243.957 66.2656C243.426 65.7031 243.004 65.0469 242.692 64.2969C242.379 63.5469 242.223 62.7344 242.223 61.8594V0.78125H254.41V55.8125H303.957V68ZM325.192 68H313.004V0.78125H325.192V68ZM370.145 24.7812L390.676 0.78125H407.317L378.395 34.4844L407.129 68H390.582L370.145 44.1875L349.801 68H333.207L361.895 34.4844L333.113 0.78125H349.613L370.145 24.7812Z" fill="#2375F8"/>
</g>
<defs>
<filter id="filter0_d_2_9" x="0.191528" y="0.78125" width="411.125" height="75.2188" filterUnits="userSpaceOnUse" color-interpolation-filters="sRGB">
<feFlood flood-opacity="0" result="BackgroundImageFix"/>
<feColorMatrix in="SourceAlpha" type="matrix" values="0 0 0 0 0 0 0 0 0 0 0 0 0 0 0 0 0 0 127 0" result="hardAlpha"/>
<feOffset dy="4"/>
<feGaussianBlur stdDeviation="2"/>
<feComposite in2="hardAlpha" operator="out"/>
<feColorMatrix type="matrix" values="0 0 0 0 0 0 0 0 0 0 0 0 0 0 0 0 0 0 0.25 0"/>
<feBlend mode="normal" in2="BackgroundImageFix" result="effect1_dropShadow_2_9"/>
<feBlend mode="normal" in="SourceGraphic" in2="effect1_dropShadow_2_9" result="shape"/>
</filter>
</defs>
</svg>
